<svg width="30" height="18" viewBox="0 0 30 18" fill="none" xmlns="http://www.w3.org/2000/svg">
<path d="M29.1427 0.655457H0.857169C0.383736 0.655457 0 1.03919 0 1.51263V16.4873C0 16.9607 0.383736 17.3445 0.857169 17.3445H29.1428C29.6162 17.3445 30 16.9608 30 16.4873V1.51263C29.9999 1.03919 29.6162 0.655457 29.1427 0.655457Z" fill="#17AB93"/>
<path d="M29.1427 0.655457H15.0672V17.3445H29.1427C29.6161 17.3445 29.9999 16.9608 29.9999 16.4873V1.51263C29.9999 1.03919 29.6162 0.655457 29.1427 0.655457Z" fill="#129179"/>
<path d="M6.1522 1.91595H1.2605V6.80766L6.1522 1.91595Z" fill="#82D9C8"/>
<path d="M28.7394 11.1923L23.8477 16.084H28.7394V11.1923Z" fill="#82D9C8"/>
<path d="M6.1522 16.084L1.2605 11.1923V16.084H6.1522Z" fill="#82D9C8"/>
<path d="M28.7394 1.91595H23.8477L28.7394 6.80766V1.91595Z" fill="#82D9C8"/>
<path d="M14.9999 3.50424C11.9696 3.50424 9.50421 5.96959 9.50421 8.99998C9.50421 12.0304 11.9696 14.4957 14.9999 14.4957C18.0303 14.4957 20.4957 12.0304 20.4957 8.99998C20.4957 5.96959 18.0303 3.50424 14.9999 3.50424Z" fill="#D5F5E6"/>
<path d="M20.4957 8.99998C20.4957 5.99211 18.0666 3.54222 15.0671 3.50586V14.494C18.0666 14.4577 20.4957 12.0079 20.4957 8.99998Z" fill="#C6E5D5"/>
</svg>